<svg xmlns="http://www.w3.org/2000/svg" xmlns:xlink="http://www.w3.org/1999/xlink" width="68" zoomAndPan="magnify" viewBox="0 0 50.879997 50.999998" height="68" preserveAspectRatio="xMidYMid meet" version="1.0"><defs><clipPath id="4c3ff35442"><path d="M 2.320312 2.378906 L 49.457031 2.378906 L 49.457031 49.519531 L 2.320312 49.519531 Z M 2.320312 2.378906 " clip-rule="nonzero"/></clipPath><clipPath id="04cf0622a5"><path d="M 35.914062 23.742188 L 40.40625 23.742188 L 40.40625 28.230469 L 35.914062 28.230469 Z M 35.914062 23.742188 " clip-rule="nonzero"/></clipPath><clipPath id="6af80aaea1"><path d="M 36 26 L 40 26 L 40 28.230469 L 36 28.230469 Z M 36 26 " clip-rule="nonzero"/></clipPath></defs><g clip-path="url(#4c3ff35442)"><path fill="#bfbdbc" d="M 49.457031 25.949219 C 49.457031 38.964844 38.90625 49.519531 25.890625 49.519531 C 12.871094 49.519531 2.320312 38.964844 2.320312 25.949219 C 2.320312 12.933594 12.871094 2.378906 25.890625 2.378906 C 38.90625 2.378906 49.457031 12.933594 49.457031 25.949219 " fill-opacity="1" fill-rule="nonzero"/></g><path fill="#ffffff" d="M 34.261719 18.5 C 34.261719 23.140625 30.5 26.902344 25.859375 26.902344 C 21.21875 26.902344 17.457031 23.140625 17.457031 18.5 C 17.457031 13.859375 21.21875 10.097656 25.859375 10.097656 C 30.5 10.097656 34.261719 13.859375 34.261719 18.5 " fill-opacity="1" fill-rule="nonzero"/><path fill="#ffffff" d="M 25.859375 48.398438 C 31.804688 48.398438 37.234375 46.195312 41.382812 42.5625 C 40.09375 34.160156 36.304688 28.328125 25.859375 28.328125 C 15.707031 28.328125 11.777344 34.183594 10.394531 42.617188 C 14.535156 46.21875 19.941406 48.398438 25.859375 48.398438 " fill-opacity="1" fill-rule="nonzero"/><g clip-path="url(#04cf0622a5)"><path fill="#bfbdbc" d="M 40.625 26.097656 C 40.625 27.398438 39.570312 28.453125 38.269531 28.453125 C 36.96875 28.453125 35.914062 27.398438 35.914062 26.097656 C 35.914062 24.796875 36.96875 23.742188 38.269531 23.742188 C 39.570312 23.742188 40.625 24.796875 40.625 26.097656 " fill-opacity="1" fill-rule="nonzero"/></g><path fill="#bfbdbc" d="M 39.109375 25.351562 C 39.109375 25.816406 38.730469 26.191406 38.269531 26.191406 C 37.804688 26.191406 37.429688 25.816406 37.429688 25.351562 C 37.429688 24.890625 37.804688 24.511719 38.269531 24.511719 C 38.730469 24.511719 39.109375 24.890625 39.109375 25.351562 " fill-opacity="1" fill-rule="nonzero"/><g clip-path="url(#6af80aaea1)"><path fill="#bfbdbc" d="M 38.269531 28.339844 C 38.863281 28.339844 39.40625 28.121094 39.820312 27.757812 C 39.691406 26.917969 39.3125 26.335938 38.269531 26.335938 C 37.253906 26.335938 36.859375 26.921875 36.722656 27.761719 C 37.136719 28.125 37.675781 28.339844 38.269531 28.339844 " fill-opacity="1" fill-rule="nonzero"/></g></svg>