<svg xmlns="http://www.w3.org/2000/svg" xmlns:xlink="http://www.w3.org/1999/xlink" width="80" zoomAndPan="magnify" viewBox="0 0 60 60" height="80" preserveAspectRatio="xMidYMid meet" version="1.0"><defs><clipPath id="c655e1e738"><path d="M 2.667969 2.667969 L 57.417969 2.667969 L 57.417969 57.417969 L 2.667969 57.417969 Z M 2.667969 2.667969 " clip-rule="nonzero"/></clipPath><clipPath id="b141b36360"><path d="M 2.667969 2.667969 L 57.417969 2.667969 L 57.417969 57.417969 L 2.667969 57.417969 Z M 2.667969 2.667969 " clip-rule="nonzero"/></clipPath></defs><path fill="#246c3c" d="M 28.351562 31.371094 L 36.5625 31.371094 L 36.5625 30.871094 L 28.351562 30.871094 L 28.351562 31.371094 " fill-opacity="1" fill-rule="nonzero"/><path fill="#246c3c" d="M 28.351562 32.492188 L 36.5625 32.492188 L 36.5625 31.988281 L 28.351562 31.988281 L 28.351562 32.492188 " fill-opacity="1" fill-rule="nonzero"/><path fill="#246c3c" d="M 28.351562 34.730469 L 36.5625 34.730469 L 36.5625 34.226562 L 28.351562 34.226562 L 28.351562 34.730469 " fill-opacity="1" fill-rule="nonzero"/><path fill="#246c3c" d="M 28.351562 33.609375 L 36.5625 33.609375 L 36.5625 33.105469 L 28.351562 33.105469 L 28.351562 33.609375 " fill-opacity="1" fill-rule="nonzero"/><path fill="#246c3c" d="M 44.851562 28.722656 L 30.273438 28.722656 L 30.273438 29.21875 L 44.851562 29.21875 L 44.851562 28.722656 " fill-opacity="1" fill-rule="nonzero"/><path fill="#246c3c" d="M 38.082031 42.570312 L 46.292969 42.570312 L 46.292969 42.066406 L 38.082031 42.066406 L 38.082031 42.570312 " fill-opacity="1" fill-rule="nonzero"/><path fill="#246c3c" d="M 38.082031 40.328125 L 46.292969 40.328125 L 46.292969 39.824219 L 38.082031 39.824219 L 38.082031 40.328125 " fill-opacity="1" fill-rule="nonzero"/><path fill="#246c3c" d="M 38.082031 41.449219 L 46.292969 41.449219 L 46.292969 40.945312 L 38.082031 40.945312 L 38.082031 41.449219 " fill-opacity="1" fill-rule="nonzero"/><path fill="#246c3c" d="M 28.351562 38.089844 L 36.5625 38.089844 L 36.5625 37.585938 L 28.351562 37.585938 L 28.351562 38.089844 " fill-opacity="1" fill-rule="nonzero"/><path fill="#246c3c" d="M 28.351562 40.328125 L 36.5625 40.328125 L 36.5625 39.824219 L 28.351562 39.824219 L 28.351562 40.328125 " fill-opacity="1" fill-rule="nonzero"/><path fill="#246c3c" d="M 28.351562 41.449219 L 36.5625 41.449219 L 36.5625 40.945312 L 28.351562 40.945312 L 28.351562 41.449219 " fill-opacity="1" fill-rule="nonzero"/><path fill="#246c3c" d="M 14.613281 42.570312 L 27.550781 42.570312 L 27.550781 27.5 L 14.613281 27.5 L 14.613281 42.570312 " fill-opacity="1" fill-rule="nonzero"/><path fill="#246c3c" d="M 28.351562 39.210938 L 36.5625 39.210938 L 36.5625 38.707031 L 28.351562 38.707031 L 28.351562 39.210938 " fill-opacity="1" fill-rule="nonzero"/><path fill="#246c3c" d="M 28.351562 36.96875 L 36.5625 36.96875 L 36.5625 36.464844 L 28.351562 36.464844 L 28.351562 36.96875 " fill-opacity="1" fill-rule="nonzero"/><path fill="#246c3c" d="M 38.082031 39.210938 L 46.292969 39.210938 L 46.292969 38.707031 L 38.082031 38.707031 L 38.082031 39.210938 " fill-opacity="1" fill-rule="nonzero"/><path fill="#246c3c" d="M 28.351562 35.851562 L 36.5625 35.851562 L 36.5625 35.347656 L 28.351562 35.347656 L 28.351562 35.851562 " fill-opacity="1" fill-rule="nonzero"/><path fill="#246c3c" d="M 28.351562 42.570312 L 36.5625 42.570312 L 36.5625 42.066406 L 28.351562 42.066406 L 28.351562 42.570312 " fill-opacity="1" fill-rule="nonzero"/><path fill="#246c3c" d="M 28.734375 22.542969 L 28.433594 22.542969 C 28.371094 23.066406 28.210938 23.460938 27.957031 23.71875 C 27.699219 23.976562 27.367188 24.109375 26.960938 24.109375 L 26.371094 24.109375 C 26.238281 24.109375 26.136719 24.082031 26.066406 24.035156 C 26.019531 24 25.996094 23.945312 25.996094 23.863281 L 25.996094 22.046875 L 26.183594 22.046875 C 26.480469 22.046875 26.699219 22.125 26.84375 22.277344 C 26.992188 22.433594 27.074219 22.699219 27.09375 23.082031 L 27.394531 23.082031 L 27.394531 20.792969 L 27.09375 20.792969 C 27.066406 21.128906 26.984375 21.371094 26.835938 21.519531 C 26.691406 21.671875 26.488281 21.746094 26.222656 21.746094 L 25.996094 21.746094 L 25.996094 20.042969 C 25.996094 19.96875 26.019531 19.914062 26.066406 19.871094 C 26.109375 19.832031 26.1875 19.808594 26.289062 19.808594 L 26.960938 19.808594 C 27.230469 19.808594 27.453125 19.855469 27.617188 19.945312 C 27.785156 20.03125 27.921875 20.167969 28.023438 20.34375 C 28.125 20.523438 28.210938 20.8125 28.28125 21.21875 L 28.574219 21.21875 L 28.476562 19.5 L 24.195312 19.5 L 24.195312 19.808594 L 24.585938 19.808594 C 24.71875 19.808594 24.8125 19.828125 24.867188 19.867188 C 24.917969 19.90625 24.945312 19.964844 24.945312 20.042969 L 24.945312 23.824219 C 24.945312 23.910156 24.917969 23.980469 24.867188 24.03125 C 24.8125 24.082031 24.738281 24.109375 24.636719 24.109375 L 24.195312 24.109375 L 24.195312 24.417969 L 28.660156 24.417969 L 28.734375 22.542969 " fill-opacity="1" fill-rule="nonzero"/><path fill="#246c3c" d="M 29.917969 19.863281 C 29.96875 19.902344 30.007812 19.964844 30.039062 20.058594 L 31.542969 24.507812 L 31.949219 24.507812 L 33.105469 21.0625 L 34.265625 24.507812 L 34.671875 24.507812 L 36.039062 20.285156 C 36.085938 20.128906 36.164062 20.015625 36.269531 19.9375 C 36.375 19.855469 36.515625 19.816406 36.691406 19.808594 L 36.691406 19.5 L 35.089844 19.5 L 35.089844 19.808594 L 35.230469 19.808594 C 35.347656 19.808594 35.441406 19.84375 35.515625 19.917969 C 35.585938 19.992188 35.621094 20.097656 35.621094 20.230469 C 35.621094 20.304688 35.609375 20.382812 35.582031 20.457031 L 34.765625 23.015625 L 33.796875 20.113281 C 33.785156 20.082031 33.78125 20.046875 33.78125 20.019531 C 33.78125 19.953125 33.804688 19.898438 33.863281 19.863281 C 33.914062 19.828125 34.019531 19.808594 34.171875 19.808594 L 34.382812 19.808594 L 34.382812 19.5 L 32.101562 19.5 L 32.101562 19.808594 L 32.34375 19.808594 C 32.460938 19.808594 32.554688 19.832031 32.628906 19.878906 C 32.6875 19.910156 32.730469 19.972656 32.761719 20.058594 L 32.90625 20.492188 L 32.058594 23.015625 L 31.078125 20.113281 C 31.0625 20.0625 31.054688 20.015625 31.054688 19.976562 C 31.054688 19.917969 31.078125 19.878906 31.117188 19.851562 C 31.160156 19.824219 31.238281 19.808594 31.355469 19.808594 L 31.542969 19.808594 L 31.542969 19.5 L 29.5625 19.5 L 29.5625 19.808594 L 29.71875 19.808594 C 29.800781 19.808594 29.863281 19.828125 29.917969 19.863281 " fill-opacity="1" fill-rule="nonzero"/><path fill="#246c3c" d="M 38.101562 23.980469 C 38.523438 24.335938 38.992188 24.515625 39.503906 24.515625 C 40.058594 24.515625 40.527344 24.351562 40.902344 24.027344 C 41.214844 23.757812 41.371094 23.394531 41.371094 22.941406 C 41.371094 22.636719 41.296875 22.378906 41.15625 22.167969 C 41.011719 21.957031 40.792969 21.785156 40.503906 21.65625 C 40.324219 21.578125 39.996094 21.488281 39.519531 21.390625 C 39.109375 21.304688 38.828125 21.222656 38.664062 21.144531 C 38.5 21.066406 38.382812 20.972656 38.308594 20.863281 C 38.238281 20.75 38.203125 20.628906 38.203125 20.496094 C 38.203125 20.273438 38.292969 20.082031 38.476562 19.917969 C 38.664062 19.757812 38.902344 19.679688 39.199219 19.679688 C 39.542969 19.679688 39.859375 19.800781 40.144531 20.046875 C 40.429688 20.289062 40.652344 20.652344 40.804688 21.140625 L 41.105469 21.140625 L 41.074219 19.441406 L 40.839844 19.441406 L 40.53125 19.878906 C 40.128906 19.542969 39.683594 19.378906 39.199219 19.378906 C 38.691406 19.378906 38.289062 19.519531 37.988281 19.800781 C 37.691406 20.085938 37.539062 20.449219 37.539062 20.894531 C 37.539062 21.160156 37.59375 21.386719 37.703125 21.570312 C 37.8125 21.753906 37.980469 21.914062 38.210938 22.039062 C 38.445312 22.167969 38.832031 22.292969 39.371094 22.410156 C 39.773438 22.496094 40.027344 22.5625 40.128906 22.597656 C 40.316406 22.671875 40.453125 22.769531 40.539062 22.886719 C 40.628906 23.003906 40.671875 23.152344 40.671875 23.328125 C 40.671875 23.578125 40.574219 23.785156 40.371094 23.953125 C 40.171875 24.121094 39.886719 24.203125 39.523438 24.203125 C 38.636719 24.203125 38.050781 23.683594 37.757812 22.644531 L 37.46875 22.644531 L 37.46875 24.464844 L 37.710938 24.464844 L 38.101562 23.980469 " fill-opacity="1" fill-rule="nonzero"/><path fill="#246c3c" d="M 28.351562 27.996094 L 46.773438 27.996094 L 46.773438 27.5 L 28.351562 27.5 L 28.351562 27.996094 " fill-opacity="1" fill-rule="nonzero"/><g clip-path="url(#c655e1e738)"><path fill="#246c3c" d="M 48.695312 43.398438 L 48.695312 17.855469 L 11.296875 17.855469 L 11.296875 43.398438 C 10.878906 43.28125 10.574219 42.898438 10.574219 42.4375 L 10.574219 16.554688 L 49.421875 16.554688 L 49.421875 42.4375 C 49.421875 42.898438 49.117188 43.28125 48.695312 43.398438 Z M 48.46875 43.4375 C 48.453125 43.4375 48.4375 43.4375 48.421875 43.4375 L 11.570312 43.4375 C 11.554688 43.4375 11.542969 43.4375 11.527344 43.4375 L 11.527344 18.082031 L 48.46875 18.082031 Z M 29.996094 2.671875 C 14.90625 2.671875 2.671875 14.90625 2.671875 29.996094 C 2.671875 45.089844 14.90625 57.324219 29.996094 57.324219 C 45.089844 57.324219 57.324219 45.089844 57.324219 29.996094 C 57.324219 14.90625 45.089844 2.671875 29.996094 2.671875 " fill-opacity="1" fill-rule="nonzero"/></g><path fill="#246c3c" d="M 46.773438 25.257812 L 13.222656 25.257812 L 13.222656 25.601562 L 46.773438 25.601562 L 46.773438 25.257812 " fill-opacity="1" fill-rule="nonzero"/><path fill="#246c3c" d="M 19.804688 24.109375 L 19.71875 24.109375 C 19.511719 24.109375 19.335938 24.035156 19.195312 23.898438 C 19.054688 23.753906 18.984375 23.53125 18.984375 23.226562 L 18.984375 20.539062 L 22.015625 24.417969 L 22.398438 24.417969 L 22.398438 20.582031 C 22.398438 20.339844 22.453125 20.15625 22.5625 20.035156 C 22.671875 19.910156 22.851562 19.835938 23.101562 19.808594 L 23.101562 19.5 L 21.304688 19.5 L 21.304688 19.808594 C 21.542969 19.828125 21.726562 19.902344 21.855469 20.039062 C 21.980469 20.171875 22.046875 20.355469 22.046875 20.582031 L 22.046875 22.871094 L 19.382812 19.5 L 17.859375 19.5 L 17.859375 19.808594 L 18.078125 19.808594 C 18.308594 19.808594 18.5 19.910156 18.648438 20.101562 L 18.648438 23.277344 C 18.648438 23.519531 18.582031 23.71875 18.445312 23.875 C 18.3125 24.03125 18.148438 24.109375 17.953125 24.109375 L 17.820312 24.109375 L 17.820312 24.417969 L 19.804688 24.417969 L 19.804688 24.109375 " fill-opacity="1" fill-rule="nonzero"/><path fill="#246c3c" d="M 38.082031 35.851562 L 46.292969 35.851562 L 46.292969 35.347656 L 38.082031 35.347656 L 38.082031 35.851562 " fill-opacity="1" fill-rule="nonzero"/><path fill="#246c3c" d="M 38.082031 34.730469 L 46.292969 34.730469 L 46.292969 34.226562 L 38.082031 34.226562 L 38.082031 34.730469 " fill-opacity="1" fill-rule="nonzero"/><path fill="#246c3c" d="M 38.082031 38.089844 L 46.292969 38.089844 L 46.292969 37.585938 L 38.082031 37.585938 L 38.082031 38.089844 " fill-opacity="1" fill-rule="nonzero"/><path fill="#246c3c" d="M 38.082031 36.96875 L 46.292969 36.96875 L 46.292969 36.464844 L 38.082031 36.464844 L 38.082031 36.96875 " fill-opacity="1" fill-rule="nonzero"/><path fill="#246c3c" d="M 38.082031 31.371094 L 46.292969 31.371094 L 46.292969 30.871094 L 38.082031 30.871094 L 38.082031 31.371094 " fill-opacity="1" fill-rule="nonzero"/><path fill="#246c3c" d="M 38.082031 32.492188 L 46.292969 32.492188 L 46.292969 31.988281 L 38.082031 31.988281 L 38.082031 32.492188 " fill-opacity="1" fill-rule="nonzero"/><path fill="#246c3c" d="M 38.082031 33.609375 L 46.292969 33.609375 L 46.292969 33.105469 L 38.082031 33.105469 L 38.082031 33.609375 " fill-opacity="1" fill-rule="nonzero"/><path fill="#246c3c" d="M 28.351562 31.371094 L 36.5625 31.371094 L 36.5625 30.871094 L 28.351562 30.871094 L 28.351562 31.371094 " fill-opacity="1" fill-rule="nonzero"/><path fill="#246c3c" d="M 28.351562 32.492188 L 36.5625 32.492188 L 36.5625 31.988281 L 28.351562 31.988281 L 28.351562 32.492188 " fill-opacity="1" fill-rule="nonzero"/><path fill="#246c3c" d="M 28.351562 34.730469 L 36.5625 34.730469 L 36.5625 34.226562 L 28.351562 34.226562 L 28.351562 34.730469 " fill-opacity="1" fill-rule="nonzero"/><path fill="#246c3c" d="M 28.351562 33.609375 L 36.5625 33.609375 L 36.5625 33.105469 L 28.351562 33.105469 L 28.351562 33.609375 " fill-opacity="1" fill-rule="nonzero"/><path fill="#246c3c" d="M 44.851562 28.722656 L 30.273438 28.722656 L 30.273438 29.21875 L 44.851562 29.21875 L 44.851562 28.722656 " fill-opacity="1" fill-rule="nonzero"/><path fill="#246c3c" d="M 38.082031 42.570312 L 46.292969 42.570312 L 46.292969 42.066406 L 38.082031 42.066406 L 38.082031 42.570312 " fill-opacity="1" fill-rule="nonzero"/><path fill="#246c3c" d="M 38.082031 40.328125 L 46.292969 40.328125 L 46.292969 39.824219 L 38.082031 39.824219 L 38.082031 40.328125 " fill-opacity="1" fill-rule="nonzero"/><path fill="#246c3c" d="M 38.082031 41.449219 L 46.292969 41.449219 L 46.292969 40.945312 L 38.082031 40.945312 L 38.082031 41.449219 " fill-opacity="1" fill-rule="nonzero"/><path fill="#246c3c" d="M 28.351562 38.089844 L 36.5625 38.089844 L 36.5625 37.585938 L 28.351562 37.585938 L 28.351562 38.089844 " fill-opacity="1" fill-rule="nonzero"/><path fill="#246c3c" d="M 28.351562 40.328125 L 36.5625 40.328125 L 36.5625 39.824219 L 28.351562 39.824219 L 28.351562 40.328125 " fill-opacity="1" fill-rule="nonzero"/><path fill="#246c3c" d="M 28.351562 41.449219 L 36.5625 41.449219 L 36.5625 40.945312 L 28.351562 40.945312 L 28.351562 41.449219 " fill-opacity="1" fill-rule="nonzero"/><path fill="#246c3c" d="M 14.613281 42.570312 L 27.550781 42.570312 L 27.550781 27.5 L 14.613281 27.5 L 14.613281 42.570312 " fill-opacity="1" fill-rule="nonzero"/><path fill="#246c3c" d="M 28.351562 39.210938 L 36.5625 39.210938 L 36.5625 38.707031 L 28.351562 38.707031 L 28.351562 39.210938 " fill-opacity="1" fill-rule="nonzero"/><path fill="#246c3c" d="M 28.351562 36.96875 L 36.5625 36.96875 L 36.5625 36.464844 L 28.351562 36.464844 L 28.351562 36.96875 " fill-opacity="1" fill-rule="nonzero"/><path fill="#246c3c" d="M 38.082031 39.210938 L 46.292969 39.210938 L 46.292969 38.707031 L 38.082031 38.707031 L 38.082031 39.210938 " fill-opacity="1" fill-rule="nonzero"/><path fill="#246c3c" d="M 28.351562 35.851562 L 36.5625 35.851562 L 36.5625 35.347656 L 28.351562 35.347656 L 28.351562 35.851562 " fill-opacity="1" fill-rule="nonzero"/><path fill="#246c3c" d="M 28.351562 42.570312 L 36.5625 42.570312 L 36.5625 42.066406 L 28.351562 42.066406 L 28.351562 42.570312 " fill-opacity="1" fill-rule="nonzero"/><path fill="#246c3c" d="M 28.734375 22.542969 L 28.433594 22.542969 C 28.371094 23.066406 28.210938 23.460938 27.957031 23.71875 C 27.699219 23.976562 27.367188 24.109375 26.960938 24.109375 L 26.371094 24.109375 C 26.238281 24.109375 26.136719 24.082031 26.066406 24.035156 C 26.019531 24 25.996094 23.945312 25.996094 23.863281 L 25.996094 22.046875 L 26.183594 22.046875 C 26.480469 22.046875 26.699219 22.125 26.84375 22.277344 C 26.992188 22.433594 27.074219 22.699219 27.09375 23.082031 L 27.394531 23.082031 L 27.394531 20.792969 L 27.09375 20.792969 C 27.066406 21.128906 26.984375 21.371094 26.835938 21.519531 C 26.691406 21.671875 26.488281 21.746094 26.222656 21.746094 L 25.996094 21.746094 L 25.996094 20.042969 C 25.996094 19.96875 26.019531 19.914062 26.066406 19.871094 C 26.109375 19.832031 26.1875 19.808594 26.289062 19.808594 L 26.960938 19.808594 C 27.230469 19.808594 27.453125 19.855469 27.617188 19.945312 C 27.785156 20.03125 27.921875 20.167969 28.023438 20.34375 C 28.125 20.523438 28.210938 20.8125 28.28125 21.21875 L 28.574219 21.21875 L 28.476562 19.5 L 24.195312 19.5 L 24.195312 19.808594 L 24.585938 19.808594 C 24.71875 19.808594 24.8125 19.828125 24.867188 19.867188 C 24.917969 19.90625 24.945312 19.964844 24.945312 20.042969 L 24.945312 23.824219 C 24.945312 23.910156 24.917969 23.980469 24.867188 24.03125 C 24.8125 24.082031 24.738281 24.109375 24.636719 24.109375 L 24.195312 24.109375 L 24.195312 24.417969 L 28.660156 24.417969 L 28.734375 22.542969 " fill-opacity="1" fill-rule="nonzero"/><path fill="#246c3c" d="M 29.917969 19.863281 C 29.96875 19.902344 30.007812 19.964844 30.039062 20.058594 L 31.542969 24.507812 L 31.949219 24.507812 L 33.105469 21.0625 L 34.265625 24.507812 L 34.671875 24.507812 L 36.039062 20.285156 C 36.085938 20.128906 36.164062 20.015625 36.269531 19.9375 C 36.375 19.855469 36.515625 19.816406 36.691406 19.808594 L 36.691406 19.5 L 35.089844 19.5 L 35.089844 19.808594 L 35.230469 19.808594 C 35.347656 19.808594 35.441406 19.84375 35.515625 19.917969 C 35.585938 19.992188 35.621094 20.097656 35.621094 20.230469 C 35.621094 20.304688 35.609375 20.382812 35.582031 20.457031 L 34.765625 23.015625 L 33.796875 20.113281 C 33.785156 20.082031 33.78125 20.046875 33.78125 20.019531 C 33.78125 19.953125 33.804688 19.898438 33.863281 19.863281 C 33.914062 19.828125 34.019531 19.808594 34.171875 19.808594 L 34.382812 19.808594 L 34.382812 19.5 L 32.101562 19.5 L 32.101562 19.808594 L 32.34375 19.808594 C 32.460938 19.808594 32.554688 19.832031 32.628906 19.878906 C 32.6875 19.910156 32.730469 19.972656 32.761719 20.058594 L 32.90625 20.492188 L 32.058594 23.015625 L 31.078125 20.113281 C 31.0625 20.0625 31.054688 20.015625 31.054688 19.976562 C 31.054688 19.917969 31.078125 19.878906 31.117188 19.851562 C 31.160156 19.824219 31.238281 19.808594 31.355469 19.808594 L 31.542969 19.808594 L 31.542969 19.5 L 29.5625 19.5 L 29.5625 19.808594 L 29.71875 19.808594 C 29.800781 19.808594 29.863281 19.828125 29.917969 19.863281 " fill-opacity="1" fill-rule="nonzero"/><path fill="#246c3c" d="M 38.101562 23.980469 C 38.523438 24.335938 38.992188 24.515625 39.503906 24.515625 C 40.058594 24.515625 40.527344 24.351562 40.902344 24.027344 C 41.214844 23.757812 41.371094 23.394531 41.371094 22.941406 C 41.371094 22.636719 41.296875 22.378906 41.15625 22.167969 C 41.011719 21.957031 40.792969 21.785156 40.503906 21.65625 C 40.324219 21.578125 39.996094 21.488281 39.519531 21.390625 C 39.109375 21.304688 38.828125 21.222656 38.664062 21.144531 C 38.5 21.066406 38.382812 20.972656 38.308594 20.863281 C 38.238281 20.75 38.203125 20.628906 38.203125 20.496094 C 38.203125 20.273438 38.292969 20.082031 38.476562 19.917969 C 38.664062 19.757812 38.902344 19.679688 39.199219 19.679688 C 39.542969 19.679688 39.859375 19.800781 40.144531 20.046875 C 40.429688 20.289062 40.652344 20.652344 40.804688 21.140625 L 41.105469 21.140625 L 41.074219 19.441406 L 40.839844 19.441406 L 40.53125 19.878906 C 40.128906 19.542969 39.683594 19.378906 39.199219 19.378906 C 38.691406 19.378906 38.289062 19.519531 37.988281 19.800781 C 37.691406 20.085938 37.539062 20.449219 37.539062 20.894531 C 37.539062 21.160156 37.59375 21.386719 37.703125 21.570312 C 37.8125 21.753906 37.980469 21.914062 38.210938 22.039062 C 38.445312 22.167969 38.832031 22.292969 39.371094 22.410156 C 39.773438 22.496094 40.027344 22.5625 40.128906 22.597656 C 40.316406 22.671875 40.453125 22.769531 40.539062 22.886719 C 40.628906 23.003906 40.671875 23.152344 40.671875 23.328125 C 40.671875 23.578125 40.574219 23.785156 40.371094 23.953125 C 40.171875 24.121094 39.886719 24.203125 39.523438 24.203125 C 38.636719 24.203125 38.050781 23.683594 37.757812 22.644531 L 37.46875 22.644531 L 37.46875 24.464844 L 37.710938 24.464844 L 38.101562 23.980469 " fill-opacity="1" fill-rule="nonzero"/><path fill="#246c3c" d="M 28.351562 27.996094 L 46.773438 27.996094 L 46.773438 27.5 L 28.351562 27.5 L 28.351562 27.996094 " fill-opacity="1" fill-rule="nonzero"/><g clip-path="url(#b141b36360)"><path fill="#246c3c" d="M 48.695312 43.398438 L 48.695312 17.855469 L 11.296875 17.855469 L 11.296875 43.398438 C 10.878906 43.28125 10.574219 42.898438 10.574219 42.4375 L 10.574219 16.554688 L 49.421875 16.554688 L 49.421875 42.4375 C 49.421875 42.898438 49.117188 43.28125 48.695312 43.398438 Z M 48.46875 43.4375 C 48.453125 43.4375 48.4375 43.4375 48.421875 43.4375 L 11.570312 43.4375 C 11.554688 43.4375 11.542969 43.4375 11.527344 43.4375 L 11.527344 18.082031 L 48.46875 18.082031 Z M 29.996094 2.671875 C 14.90625 2.671875 2.671875 14.90625 2.671875 29.996094 C 2.671875 45.089844 14.90625 57.324219 29.996094 57.324219 C 45.089844 57.324219 57.324219 45.089844 57.324219 29.996094 C 57.324219 14.90625 45.089844 2.671875 29.996094 2.671875 " fill-opacity="1" fill-rule="nonzero"/></g><path fill="#246c3c" d="M 46.773438 25.257812 L 13.222656 25.257812 L 13.222656 25.601562 L 46.773438 25.601562 L 46.773438 25.257812 " fill-opacity="1" fill-rule="nonzero"/><path fill="#246c3c" d="M 19.804688 24.109375 L 19.71875 24.109375 C 19.511719 24.109375 19.335938 24.035156 19.195312 23.898438 C 19.054688 23.753906 18.984375 23.53125 18.984375 23.226562 L 18.984375 20.539062 L 22.015625 24.417969 L 22.398438 24.417969 L 22.398438 20.582031 C 22.398438 20.339844 22.453125 20.15625 22.5625 20.035156 C 22.671875 19.910156 22.851562 19.835938 23.101562 19.808594 L 23.101562 19.5 L 21.304688 19.5 L 21.304688 19.808594 C 21.542969 19.828125 21.726562 19.902344 21.855469 20.039062 C 21.980469 20.171875 22.046875 20.355469 22.046875 20.582031 L 22.046875 22.871094 L 19.382812 19.5 L 17.859375 19.5 L 17.859375 19.808594 L 18.078125 19.808594 C 18.308594 19.808594 18.5 19.910156 18.648438 20.101562 L 18.648438 23.277344 C 18.648438 23.519531 18.582031 23.71875 18.445312 23.875 C 18.3125 24.03125 18.148438 24.109375 17.953125 24.109375 L 17.820312 24.109375 L 17.820312 24.417969 L 19.804688 24.417969 L 19.804688 24.109375 " fill-opacity="1" fill-rule="nonzero"/><path fill="#246c3c" d="M 38.082031 35.851562 L 46.292969 35.851562 L 46.292969 35.347656 L 38.082031 35.347656 L 38.082031 35.851562 " fill-opacity="1" fill-rule="nonzero"/><path fill="#246c3c" d="M 38.082031 34.730469 L 46.292969 34.730469 L 46.292969 34.226562 L 38.082031 34.226562 L 38.082031 34.730469 " fill-opacity="1" fill-rule="nonzero"/><path fill="#246c3c" d="M 38.082031 38.089844 L 46.292969 38.089844 L 46.292969 37.585938 L 38.082031 37.585938 L 38.082031 38.089844 " fill-opacity="1" fill-rule="nonzero"/><path fill="#246c3c" d="M 38.082031 36.96875 L 46.292969 36.96875 L 46.292969 36.464844 L 38.082031 36.464844 L 38.082031 36.96875 " fill-opacity="1" fill-rule="nonzero"/><path fill="#246c3c" d="M 38.082031 31.371094 L 46.292969 31.371094 L 46.292969 30.871094 L 38.082031 30.871094 L 38.082031 31.371094 " fill-opacity="1" fill-rule="nonzero"/><path fill="#246c3c" d="M 38.082031 32.492188 L 46.292969 32.492188 L 46.292969 31.988281 L 38.082031 31.988281 L 38.082031 32.492188 " fill-opacity="1" fill-rule="nonzero"/><path fill="#246c3c" d="M 38.082031 33.609375 L 46.292969 33.609375 L 46.292969 33.105469 L 38.082031 33.105469 L 38.082031 33.609375 " fill-opacity="1" fill-rule="nonzero"/></svg>