<svg xmlns="http://www.w3.org/2000/svg" xmlns:xlink="http://www.w3.org/1999/xlink" width="80" zoomAndPan="magnify" viewBox="0 0 60 60" height="80" preserveAspectRatio="xMidYMid meet" version="1.0"><defs><clipPath id="885405124b"><path d="M 23 14 L 55.300781 14 L 55.300781 60 L 23 60 Z M 23 14 " clip-rule="nonzero"/></clipPath><clipPath id="948f4ff8cf"><path d="M 5.050781 19 L 34 19 L 34 60 L 5.050781 60 Z M 5.050781 19 " clip-rule="nonzero"/></clipPath><clipPath id="561eff57a3"><path d="M 5.050781 1.730469 L 54 1.730469 L 54 35 L 5.050781 35 Z M 5.050781 1.730469 " clip-rule="nonzero"/></clipPath><clipPath id="a30d327232"><path d="M 23 14 L 55.300781 14 L 55.300781 60 L 23 60 Z M 23 14 " clip-rule="nonzero"/></clipPath><clipPath id="5431bddbba"><path d="M 5.050781 19 L 34 19 L 34 60 L 5.050781 60 Z M 5.050781 19 " clip-rule="nonzero"/></clipPath><clipPath id="77690ef026"><path d="M 5.050781 1.730469 L 54 1.730469 L 54 35 L 5.050781 35 Z M 5.050781 1.730469 " clip-rule="nonzero"/></clipPath></defs><g clip-path="url(#885405124b)"><path fill="#b4ac88" d="M 53.949219 16.613281 C 54.136719 24.957031 55.007812 33.882812 55.289062 42.210938 C 48.128906 48.496094 40.691406 54.566406 33.039062 60.230469 C 29.105469 52.742188 24.789062 46.296875 23.484375 37.941406 C 23.074219 35.34375 29.023438 29.566406 30.046875 27.144531 C 30.65625 25.691406 31.523438 24.359375 32.546875 23.152344 C 34.644531 20.671875 37.496094 18.695312 40.714844 18.203125 C 42.578125 17.921875 44.5625 18.121094 46.277344 17.328125 C 47.53125 16.742188 45.394531 15.5 46.628906 14.859375 C 47.859375 14.214844 51.59375 16.378906 53.949219 16.613281 Z M 53.949219 16.613281 " fill-opacity="1" fill-rule="nonzero"/></g><g clip-path="url(#948f4ff8cf)"><path fill="#f7c696" d="M 29.660156 35.097656 C 30.960938 43.453125 32.089844 51.832031 33.039062 60.230469 C 24.835938 56.488281 16.164062 51.375 7.632812 45.945312 C 6.304688 36.035156 5.882812 28.875 5.0625 19.84375 C 14.789062 20.71875 24.015625 25.527344 29.613281 34.785156 C 29.636719 34.898438 29.648438 34.992188 29.660156 35.097656 Z M 29.660156 35.097656 " fill-opacity="1" fill-rule="nonzero"/></g><path fill="#745f52" d="M 35.503906 22.742188 C 37.285156 20.730469 36.710938 21.433594 39.28125 20.707031 L 46.136719 22.546875 L 46.652344 27.855469 C 44.644531 29.625 42.636719 31.390625 40.65625 33.179688 L 40.007812 27.4375 Z M 35.503906 22.742188 " fill-opacity="1" fill-rule="nonzero"/><g clip-path="url(#561eff57a3)"><path fill="#ead4af" d="M 29.777344 34.863281 C 21.035156 30.757812 12.738281 25.703125 5.0625 19.84375 C 13.535156 13.488281 22.359375 6.996094 31.558594 1.730469 C 38.648438 5.566406 47.484375 11.804688 53.949219 16.613281 C 51.320312 18.449219 48.742188 20.460938 46.136719 22.546875 C 41.019531 22.207031 38.203125 22.605469 39.996094 27.449219 C 36.769531 29.972656 33.414062 32.511719 29.777344 34.863281 Z M 29.777344 34.863281 " fill-opacity="1" fill-rule="nonzero"/></g><path fill="#ca9a49" d="M 39.996094 27.4375 L 15.753906 11.992188 C 17.746094 10.574219 19.753906 9.183594 21.773438 7.828125 L 46.136719 22.546875 Z M 39.996094 27.4375 " fill-opacity="1" fill-rule="nonzero"/><g clip-path="url(#a30d327232)"><path fill="#b4ac88" d="M 53.949219 16.613281 C 54.136719 24.957031 55.007812 33.882812 55.289062 42.210938 C 48.128906 48.496094 40.691406 54.566406 33.039062 60.230469 C 29.105469 52.742188 24.789062 46.296875 23.484375 37.941406 C 23.074219 35.34375 29.023438 29.566406 30.046875 27.144531 C 30.65625 25.691406 31.523438 24.359375 32.546875 23.152344 C 34.644531 20.671875 37.496094 18.695312 40.714844 18.203125 C 42.578125 17.921875 44.5625 18.121094 46.277344 17.328125 C 47.53125 16.742188 45.394531 15.5 46.628906 14.859375 C 47.859375 14.214844 51.59375 16.378906 53.949219 16.613281 Z M 53.949219 16.613281 " fill-opacity="1" fill-rule="nonzero"/></g><g clip-path="url(#5431bddbba)"><path fill="#f7c696" d="M 29.660156 35.097656 C 30.960938 43.453125 32.089844 51.832031 33.039062 60.230469 C 24.835938 56.488281 16.164062 51.375 7.632812 45.945312 C 6.304688 36.035156 5.882812 28.875 5.0625 19.84375 C 14.789062 20.71875 24.015625 25.527344 29.613281 34.785156 C 29.636719 34.898438 29.648438 34.992188 29.660156 35.097656 Z M 29.660156 35.097656 " fill-opacity="1" fill-rule="nonzero"/></g><path fill="#745f52" d="M 35.503906 22.742188 C 37.285156 20.730469 36.710938 21.433594 39.28125 20.707031 L 46.136719 22.546875 L 46.652344 27.855469 C 44.644531 29.625 42.636719 31.390625 40.65625 33.179688 L 40.007812 27.4375 Z M 35.503906 22.742188 " fill-opacity="1" fill-rule="nonzero"/><g clip-path="url(#77690ef026)"><path fill="#ead4af" d="M 29.777344 34.863281 C 21.035156 30.757812 12.738281 25.703125 5.0625 19.84375 C 13.535156 13.488281 22.359375 6.996094 31.558594 1.730469 C 38.648438 5.566406 47.484375 11.804688 53.949219 16.613281 C 51.320312 18.449219 48.742188 20.460938 46.136719 22.546875 C 41.019531 22.207031 38.203125 22.605469 39.996094 27.449219 C 36.769531 29.972656 33.414062 32.511719 29.777344 34.863281 Z M 29.777344 34.863281 " fill-opacity="1" fill-rule="nonzero"/></g><path fill="#ca9a49" d="M 39.996094 27.4375 L 15.753906 11.992188 C 17.746094 10.574219 19.753906 9.183594 21.773438 7.828125 L 46.136719 22.546875 Z M 39.996094 27.4375 " fill-opacity="1" fill-rule="nonzero"/></svg>