<svg xmlns="http://www.w3.org/2000/svg" xmlns:xlink="http://www.w3.org/1999/xlink" width="54" zoomAndPan="magnify" viewBox="0 0 40.5 40.5" height="54" preserveAspectRatio="xMidYMid meet" version="1.0"><defs><clipPath id="8f7ff13a70"><path d="M 2.519531 2.222656 L 37.191406 2.222656 L 37.191406 38.382812 L 2.519531 38.382812 Z M 2.519531 2.222656 " clip-rule="nonzero"/></clipPath><clipPath id="687d18aaa2"><path d="M 4.742188 2.222656 L 34.96875 2.222656 C 35.558594 2.222656 36.125 2.457031 36.539062 2.875 C 36.957031 3.289062 37.191406 3.855469 37.191406 4.445312 L 37.191406 36.152344 C 37.191406 36.742188 36.957031 37.308594 36.539062 37.726562 C 36.125 38.140625 35.558594 38.375 34.96875 38.375 L 4.742188 38.375 C 4.152344 38.375 3.585938 38.140625 3.167969 37.726562 C 2.753906 37.308594 2.519531 36.742188 2.519531 36.152344 L 2.519531 4.445312 C 2.519531 3.855469 2.753906 3.289062 3.167969 2.875 C 3.585938 2.457031 4.152344 2.222656 4.742188 2.222656 Z M 4.742188 2.222656 " clip-rule="nonzero"/></clipPath><clipPath id="659c82eace"><path d="M 4 4 L 35.855469 4 L 35.855469 35.855469 L 4 35.855469 Z M 4 4 " clip-rule="nonzero"/></clipPath></defs><g clip-path="url(#8f7ff13a70)"><g clip-path="url(#687d18aaa2)"><path fill="#a6a6a6" d="M 2.519531 2.222656 L 37.191406 2.222656 L 37.191406 38.382812 L 2.519531 38.382812 Z M 2.519531 2.222656 " fill-opacity="1" fill-rule="nonzero"/></g></g><path fill="#ffffff" d="M 20.039062 10.597656 C 17.011719 10.597656 14.542969 13.058594 14.542969 16.082031 C 14.542969 19.121094 17.011719 21.578125 20.039062 21.578125 C 23.066406 21.578125 25.535156 19.121094 25.535156 16.082031 C 25.535156 13.058594 23.066406 10.597656 20.039062 10.597656 Z M 20.039062 10.597656 " fill-opacity="1" fill-rule="nonzero"/><g clip-path="url(#659c82eace)"><path fill="#ffffff" d="M 20.027344 4.011719 C 11.195312 4.011719 4 11.195312 4 20.039062 C 4 24.957031 6.234375 29.363281 9.730469 32.304688 C 9.730469 32.304688 9.730469 32.304688 9.730469 32.3125 C 12.523438 34.65625 16.113281 36.066406 20.027344 36.066406 C 25.609375 36.066406 30.699219 33.242188 33.648438 28.507812 C 35.242188 25.960938 36.078125 23.042969 36.078125 20.039062 C 36.078125 17.035156 35.242188 14.105469 33.648438 11.570312 C 30.699219 6.835938 25.609375 4.011719 20.027344 4.011719 Z M 31.84375 27.375 C 31.328125 28.195312 30.730469 28.925781 30.078125 29.609375 C 28.453125 26.273438 25 24.046875 21.183594 24.046875 L 18.894531 24.046875 C 16.242188 24.046875 13.75 25.085938 11.878906 26.957031 C 11.101562 27.726562 10.480469 28.636719 10 29.617188 C 7.613281 27.128906 6.140625 23.761719 6.140625 20.039062 C 6.140625 12.382812 12.371094 6.148438 20.027344 6.148438 C 24.871094 6.148438 29.277344 8.597656 31.84375 12.703125 C 33.210938 14.90625 33.9375 17.441406 33.9375 20.039062 C 33.9375 22.636719 33.210938 25.171875 31.84375 27.375 Z M 31.84375 27.375 " fill-opacity="1" fill-rule="nonzero"/></g></svg>