<svg xmlns="http://www.w3.org/2000/svg" xmlns:xlink="http://www.w3.org/1999/xlink" width="54" zoomAndPan="magnify" viewBox="0 0 40.5 40.5" height="54" preserveAspectRatio="xMidYMid meet" version="1.0"><defs><clipPath id="6087cfbb37"><path d="M 4.378906 2.199219 L 35.496094 2.199219 L 35.496094 37.757812 L 4.378906 37.757812 Z M 4.378906 2.199219 " clip-rule="nonzero"/></clipPath><clipPath id="429898458b"><path d="M 25 2.199219 L 35.496094 2.199219 L 35.496094 14 L 25 14 Z M 25 2.199219 " clip-rule="nonzero"/></clipPath><clipPath id="ef1b1c67fe"><path d="M 29.484375 26.078125 L 30.96875 26.078125 L 30.96875 27.558594 L 29.484375 27.558594 Z M 29.484375 26.078125 " clip-rule="nonzero"/></clipPath><clipPath id="7430f8ff55"><path d="M 30 26.078125 L 30.96875 26.078125 L 30.96875 27 L 30 27 Z M 30 26.078125 " clip-rule="nonzero"/></clipPath><clipPath id="d455857f98"><path d="M 30 26.078125 L 30.96875 26.078125 L 30.96875 27.558594 L 30 27.558594 Z M 30 26.078125 " clip-rule="nonzero"/></clipPath><clipPath id="985f46e92f"><path d="M 29.484375 26.078125 L 30.96875 26.078125 L 30.96875 27.558594 L 29.484375 27.558594 Z M 29.484375 26.078125 " clip-rule="nonzero"/></clipPath></defs><g clip-path="url(#6087cfbb37)"><path fill="#687076" d="M 30.28125 37.804688 L 9.71875 37.804688 C 9.367188 37.804688 9.019531 37.769531 8.675781 37.703125 C 8.332031 37.632812 8 37.53125 7.675781 37.398438 C 7.355469 37.265625 7.046875 37.101562 6.753906 36.90625 C 6.464844 36.710938 6.195312 36.488281 5.949219 36.242188 C 5.699219 35.996094 5.480469 35.726562 5.285156 35.433594 C 5.089844 35.144531 4.925781 34.835938 4.792969 34.511719 C 4.65625 34.191406 4.558594 33.855469 4.488281 33.511719 C 4.421875 33.167969 4.386719 32.824219 4.386719 32.472656 L 4.386719 7.53125 C 4.386719 7.179688 4.421875 6.832031 4.488281 6.488281 C 4.558594 6.144531 4.65625 5.8125 4.792969 5.488281 C 4.925781 5.164062 5.089844 4.859375 5.285156 4.566406 C 5.480469 4.277344 5.699219 4.007812 5.949219 3.757812 C 6.195312 3.511719 6.464844 3.292969 6.753906 3.097656 C 7.046875 2.902344 7.355469 2.738281 7.675781 2.605469 C 8 2.46875 8.332031 2.367188 8.675781 2.300781 C 9.019531 2.234375 9.367188 2.199219 9.71875 2.199219 L 25.234375 2.199219 L 35.613281 13.613281 L 35.613281 32.472656 C 35.613281 32.824219 35.582031 33.167969 35.511719 33.511719 C 35.445312 33.855469 35.34375 34.191406 35.207031 34.511719 C 35.074219 34.835938 34.910156 35.144531 34.714844 35.433594 C 34.519531 35.726562 34.300781 35.996094 34.050781 36.242188 C 33.804688 36.492188 33.535156 36.710938 33.242188 36.90625 C 32.953125 37.101562 32.644531 37.265625 32.320312 37.398438 C 32 37.53125 31.664062 37.632812 31.320312 37.703125 C 30.976562 37.769531 30.632812 37.804688 30.28125 37.804688 Z M 30.28125 37.804688 " fill-opacity="1" fill-rule="nonzero"/></g><g clip-path="url(#429898458b)"><path fill="#b5b1b8" d="M 27.792969 13.609375 L 35.613281 13.609375 L 25.234375 2.199219 L 25.234375 11.054688 C 25.234375 11.394531 25.300781 11.71875 25.429688 12.03125 C 25.5625 12.347656 25.746094 12.621094 25.984375 12.863281 C 26.222656 13.101562 26.5 13.285156 26.8125 13.417969 C 27.128906 13.546875 27.453125 13.609375 27.792969 13.609375 Z M 27.792969 13.609375 " fill-opacity="1" fill-rule="nonzero"/></g><path fill="#ffffff" d="M 19.636719 27.210938 C 19.449219 27.210938 19.265625 27.171875 19.089844 27.101562 C 18.914062 27.027344 18.761719 26.925781 18.625 26.792969 C 18.492188 26.65625 18.390625 26.503906 18.316406 26.328125 C 18.242188 26.152344 18.207031 25.96875 18.207031 25.78125 L 18.207031 16.464844 C 18.207031 16.277344 18.246094 16.09375 18.316406 15.921875 C 18.390625 15.746094 18.492188 15.589844 18.628906 15.457031 C 18.761719 15.324219 18.914062 15.21875 19.089844 15.148438 C 19.265625 15.074219 19.449219 15.039062 19.636719 15.039062 C 19.828125 15.039062 20.007812 15.074219 20.183594 15.148438 C 20.359375 15.21875 20.511719 15.324219 20.648438 15.457031 C 20.78125 15.589844 20.882812 15.746094 20.957031 15.921875 C 21.03125 16.09375 21.066406 16.277344 21.066406 16.464844 L 21.066406 25.78125 C 21.066406 25.96875 21.03125 26.152344 20.957031 26.328125 C 20.886719 26.503906 20.78125 26.65625 20.648438 26.792969 C 20.515625 26.925781 20.359375 27.027344 20.183594 27.101562 C 20.007812 27.175781 19.828125 27.210938 19.636719 27.210938 Z M 19.636719 27.210938 " fill-opacity="1" fill-rule="nonzero"/><path fill="#ffffff" d="M 19.636719 28.824219 C 19.242188 28.824219 18.90625 28.683594 18.625 28.40625 L 14.664062 24.441406 C 14.527344 24.308594 14.421875 24.152344 14.34375 23.976562 C 14.269531 23.800781 14.234375 23.617188 14.230469 23.425781 C 14.230469 23.234375 14.265625 23.050781 14.339844 22.875 C 14.410156 22.699219 14.515625 22.542969 14.652344 22.40625 C 14.785156 22.273438 14.941406 22.167969 15.117188 22.097656 C 15.296875 22.023438 15.480469 21.988281 15.667969 21.988281 C 15.859375 21.988281 16.042969 22.027344 16.21875 22.101562 C 16.394531 22.175781 16.550781 22.28125 16.683594 22.417969 L 19.636719 25.371094 L 22.589844 22.417969 C 22.722656 22.285156 22.878906 22.183594 23.054688 22.113281 C 23.226562 22.039062 23.410156 22.003906 23.597656 22.003906 C 23.789062 22.003906 23.96875 22.042969 24.144531 22.113281 C 24.320312 22.1875 24.472656 22.289062 24.605469 22.421875 C 24.742188 22.558594 24.84375 22.710938 24.917969 22.886719 C 24.988281 23.0625 25.027344 23.242188 25.027344 23.429688 C 25.027344 23.621094 24.992188 23.800781 24.917969 23.976562 C 24.847656 24.152344 24.746094 24.308594 24.613281 24.441406 L 20.648438 28.40625 C 20.367188 28.683594 20.03125 28.824219 19.636719 28.824219 Z M 19.636719 28.824219 " fill-opacity="1" fill-rule="nonzero"/><g clip-path="url(#ef1b1c67fe)"><path fill="#687076" d="M 30.464844 27.421875 L 29.6875 27.421875 C 29.554688 27.421875 29.488281 27.355469 29.488281 27.21875 L 29.488281 26.277344 C 29.488281 26.144531 29.554688 26.078125 29.6875 26.078125 L 30.273438 26.078125 L 30.664062 26.507812 L 30.664062 27.21875 C 30.664062 27.355469 30.597656 27.421875 30.464844 27.421875 Z M 30.464844 27.421875 " fill-opacity="1" fill-rule="nonzero"/></g><g clip-path="url(#7430f8ff55)"><path fill="#687076" d="M 30.371094 26.507812 L 30.664062 26.507812 L 30.273438 26.078125 L 30.273438 26.410156 C 30.273438 26.476562 30.304688 26.507812 30.371094 26.507812 Z M 30.371094 26.507812 " fill-opacity="1" fill-rule="nonzero"/></g><g clip-path="url(#d455857f98)"><path fill="#687076" d="M 30.0625 27.019531 C 30.027344 27.019531 30.007812 27.003906 30.007812 26.96875 L 30.007812 26.617188 C 30.007812 26.582031 30.027344 26.5625 30.0625 26.5625 C 30.097656 26.5625 30.117188 26.582031 30.117188 26.617188 L 30.117188 26.96875 C 30.117188 27.003906 30.097656 27.019531 30.0625 27.019531 Z M 30.0625 27.019531 " fill-opacity="1" fill-rule="nonzero"/></g><g clip-path="url(#985f46e92f)"><path fill="#687076" d="M 30.0625 27.082031 C 30.046875 27.082031 30.035156 27.078125 30.023438 27.066406 L 29.875 26.917969 C 29.847656 26.890625 29.847656 26.867188 29.875 26.839844 C 29.898438 26.816406 29.925781 26.816406 29.953125 26.839844 L 30.0625 26.953125 L 30.175781 26.839844 C 30.199219 26.816406 30.226562 26.816406 30.25 26.839844 C 30.273438 26.867188 30.277344 26.890625 30.25 26.917969 L 30.101562 27.066406 C 30.089844 27.078125 30.078125 27.082031 30.0625 27.082031 Z M 30.0625 27.082031 " fill-opacity="1" fill-rule="nonzero"/></g></svg>