<?xml version="1.0" encoding="iso-8859-1"?>
<!-- Generator: Adobe Illustrator 24.1.2, SVG Export Plug-In . SVG Version: 6.00 Build 0)  -->
<svg version="1.1" xmlns="http://www.w3.org/2000/svg" xmlns:xlink="http://www.w3.org/1999/xlink" x="0px" y="0px"
	 viewBox="0 0 48 48" style="enable-background:new 0 0 48 48;" xml:space="preserve">
<g id="Layer_10" style="display:none;">
	<g style="display:inline;opacity:0.05;">
		<g>
			<circle style="fill:#FFFFFF;" cx="24" cy="24" r="19.5"/>
			<path d="M24,5c10.477,0,19,8.523,19,19s-8.523,19-19,19S5,34.477,5,24S13.523,5,24,5 M24,4C12.954,4,4,12.954,4,24
				s8.954,20,20,20s20-8.954,20-20S35.046,4,24,4L24,4z"/>
		</g>
		<g>
			<rect x="6.5" y="6.5" style="fill:#FFFFFF;" width="35" height="35"/>
			<path d="M41,7v34H7V7H41 M42,6H6v36h36V6L42,6z"/>
		</g>
	</g>
</g>
<g id="filled">
</g>
<g id="outlined">
</g>
<g id="rounded">
</g>
<g id="two_x5F_tone">
</g>
<g id="sharp">
</g>
<g id="win10">
</g>
<g id="ios_x5F_out">
</g>
<g id="ios_x5F_filled">
</g>
<g id="color">
	<path style="fill:#F4511E;" d="M36.683,43H11.317c-2.136,0-3.896-1.679-3.996-3.813l-1.272-27.14C6.022,11.477,6.477,11,7.048,11
		h33.904c0.571,0,1.026,0.477,0.999,1.047l-1.272,27.14C40.579,41.321,38.819,43,36.683,43z"/>
	<path style="fill:#F4511E;" d="M32.5,11.5h-2C30.5,7.364,27.584,4,24,4s-6.5,3.364-6.5,7.5h-2C15.5,6.262,19.313,2,24,2
		S32.5,6.262,32.5,11.5z"/>
	<path style="fill:#FAFAFA;" d="M24.248,25.688c-2.741-1.002-4.405-1.743-4.405-3.577c0-1.851,1.776-3.195,4.224-3.195
		c1.685,0,3.159,0.66,3.888,1.052c0.124,0.067,0.474,0.277,0.672,0.41l0.13,0.087l0.958-1.558l-0.157-0.103
		c-0.772-0.521-2.854-1.733-5.49-1.733c-3.459,0-6.067,2.166-6.067,5.039c0,3.257,2.983,4.347,5.615,5.309
		c3.07,1.122,4.934,1.975,4.934,4.349c0,1.828-2.067,3.314-4.609,3.314c-2.864,0-5.326-2.105-5.349-2.125l-0.128-0.118l-1.046,1.542
		l0.106,0.087c0.712,0.577,3.276,2.458,6.416,2.458c3.619,0,6.454-2.266,6.454-5.158C30.393,27.933,27.128,26.741,24.248,25.688z"/>
</g>
<g id="fluent">
</g>
<g id="doodle">
</g>
<g id="fluent-sys">
</g>
</svg>