<?xml version="1.0" encoding="iso-8859-1"?>
<!-- Generator: Adobe Illustrator 26.0.3, SVG Export Plug-In . SVG Version: 6.00 Build 0)  -->
<svg version="1.1" baseProfile="basic" xmlns="http://www.w3.org/2000/svg" xmlns:xlink="http://www.w3.org/1999/xlink" x="0px"
	 y="0px" viewBox="0 0 64 64" xml:space="preserve">
<g id="Layer_1">
</g>
<g id="&#x421;&#x43B;&#x43E;&#x439;_2">
</g>
<g id="&#x421;&#x43B;&#x43E;&#x439;_3">
</g>
<g id="&#x421;&#x43B;&#x43E;&#x439;_4">
</g>
<g id="&#x421;&#x43B;&#x43E;&#x439;_5">
	<linearGradient id="SVGID_1_" gradientUnits="userSpaceOnUse" x1="32.135" y1="1.4451" x2="32.135" y2="51.0434">
		<stop  offset="0" style="stop-color:#6DC7FF"/>
		<stop  offset="0.4917" style="stop-color:#AAB9FF"/>
		<stop  offset="1" style="stop-color:#E6ABFF"/>
	</linearGradient>
	<path style="fill:url(#SVGID_1_);" d="M54,13.6v24.51c0,8.79-7.12,15.91-15.9,15.91H10.27V13.6h12.59c2.93,0,6.62,1.99,9.28,4.64
		c2.65-2.65,6.34-4.64,9.27-4.64H54z"/>
	<circle style="fill:#FFFFFF;" cx="22.859" cy="30.163" r="9.276"/>
	<circle style="fill:#FFFFFF;" cx="41.411" cy="30.163" r="9.276"/>
	<path style="fill:#FFFFFF;" d="M44,48.473c0,0.799-0.109,2.78-0.298,3.527H20.568c-0.189-0.746-0.298-2.728-0.298-3.527
		C20.27,42.688,25.583,38,32.14,38C38.687,38,44,42.688,44,48.473z"/>
	
		<linearGradient id="SVGID_00000017486345456697434390000009311651428172652729_" gradientUnits="userSpaceOnUse" x1="23.5217" y1="-3.4184" x2="23.5217" y2="63.8217">
		<stop  offset="0" style="stop-color:#1A6DFF"/>
		<stop  offset="1" style="stop-color:#C822FF"/>
	</linearGradient>
	<circle style="fill:url(#SVGID_00000017486345456697434390000009311651428172652729_);" cx="23.522" cy="30.825" r="4.638"/>
	<circle style="fill:#FFFFFF;" cx="21.203" cy="27.181" r="2.982"/>
	<g>
		<g>
			<g>
				<path style="fill:#FFFFFF;" d="M41.41,14.6c-2.53,0-5.97,1.74-8.57,4.34c-0.19,0.2-0.45,0.3-0.7,0.3c-0.26,0-0.52-0.1-0.71-0.3
					c-2.6-2.6-6.04-4.34-8.57-4.34H11.27v38.42H38.1c8.21,0,14.9-6.69,14.9-14.91V14.6H41.41z M51,38.11
					c0,7.12-5.79,12.91-12.9,12.91H13.27V16.6h9.59c1.69,0,4.69,1.29,7.15,3.76c0.57,0.56,1.32,0.88,2.13,0.88
					c0.8,0,1.55-0.32,2.12-0.88c2.46-2.47,5.46-3.76,7.15-3.76H51V38.11z"/>
			</g>
		</g>
	</g>
	
		<linearGradient id="SVGID_00000100347830086700877940000003600934711141000350_" gradientUnits="userSpaceOnUse" x1="32.1353" y1="-3.4184" x2="32.1353" y2="63.8217">
		<stop  offset="0" style="stop-color:#1A6DFF"/>
		<stop  offset="1" style="stop-color:#C822FF"/>
	</linearGradient>
	<path style="fill:url(#SVGID_00000100347830086700877940000003600934711141000350_);" d="M41.067,20.23
		c-3.929,0-7.322,2.299-8.932,5.617c-1.61-3.318-5.003-5.617-8.933-5.617c-5.477,0-9.932,4.455-9.932,9.932s4.456,9.933,9.932,9.933
		c3.929,0,7.323-2.299,8.933-5.618c1.61,3.318,5.003,5.618,8.932,5.618c5.477,0,9.933-4.456,9.933-9.933S46.544,20.23,41.067,20.23z
		 M23.203,38.095c-4.374,0-7.932-3.559-7.932-7.933c0-4.373,3.558-7.932,7.932-7.932s7.933,3.559,7.933,7.932
		C31.135,34.536,27.577,38.095,23.203,38.095z M41.067,38.095c-4.374,0-7.932-3.559-7.932-7.933c0-4.373,3.558-7.932,7.932-7.932
		S49,25.789,49,30.162C49,34.536,45.441,38.095,41.067,38.095z"/>
	
		<linearGradient id="SVGID_00000149382363190094828090000001318233430523932075_" gradientUnits="userSpaceOnUse" x1="40.7486" y1="-3.4184" x2="40.7486" y2="63.8217">
		<stop  offset="0" style="stop-color:#1A6DFF"/>
		<stop  offset="1" style="stop-color:#C822FF"/>
	</linearGradient>
	<circle style="fill:url(#SVGID_00000149382363190094828090000001318233430523932075_);" cx="40.749" cy="30.825" r="4.638"/>
	<circle style="fill:#FFFFFF;" cx="38.43" cy="27.181" r="2.982"/>
	
		<linearGradient id="SVGID_00000071546768543504902220000009219270746033675703_" gradientUnits="userSpaceOnUse" x1="31.85" y1="37.11" x2="31.85" y2="43.98">
		<stop  offset="0" style="stop-color:#6DC7FF"/>
		<stop  offset="0.4917" style="stop-color:#AAB9FF"/>
		<stop  offset="1" style="stop-color:#E6ABFF"/>
	</linearGradient>
	<path style="fill:url(#SVGID_00000071546768543504902220000009219270746033675703_);" d="M36.57,39.3l-4.43,4.44l-0.24,0.24
		l-4.77-4.77c1.14-1.29,2.82-2.1,4.67-2.1c0.12,0,0.22,0.02,0.34,0.02C33.91,37.22,35.48,38.04,36.57,39.3z"/>
	<g>
		
			<linearGradient id="SVGID_00000052797206074420956640000010715496608083865788_" gradientUnits="userSpaceOnUse" x1="31.8459" y1="-4.5346" x2="31.8459" y2="62.7055">
			<stop  offset="0" style="stop-color:#1A6DFF"/>
			<stop  offset="1" style="stop-color:#C822FF"/>
		</linearGradient>
		<path style="fill:url(#SVGID_00000052797206074420956640000010715496608083865788_);" d="M31.9,45.278l-6.142-6.143l0.623-0.704
			c1.369-1.549,3.344-2.438,5.419-2.438c0.091,0,0.175,0.006,0.258,0.014l0.133,0.007c1.997,0.102,3.82,0.994,5.135,2.515
			l0.608,0.703L31.9,45.278z M28.562,39.112l3.337,3.337l3.25-3.258c-0.865-0.709-1.924-1.121-3.061-1.179
			c-0.035,0.004-0.123-0.005-0.208-0.013c-0.007,0-0.015,0-0.021,0C30.619,38,29.474,38.398,28.562,39.112z"/>
	</g>
	
		<linearGradient id="SVGID_00000058549127599365078710000004063588396264840855_" gradientUnits="userSpaceOnUse" x1="32.135" y1="-3.4184" x2="32.135" y2="63.8217">
		<stop  offset="0" style="stop-color:#1A6DFF"/>
		<stop  offset="1" style="stop-color:#C822FF"/>
	</linearGradient>
	<path style="fill:url(#SVGID_00000058549127599365078710000004063588396264840855_);" d="M54,12.6H42.264
		c-0.798-4.877-5.03-8.616-10.129-8.616S22.804,7.723,22.006,12.6H10.27c-0.55,0-1,0.45-1,1v40.42c0,0.55,0.45,1,1,1H38.1
		c9.32,0,16.9-7.59,16.9-16.91V13.6C55,13.05,54.55,12.6,54,12.6z M32.135,5.984c4.025,0,7.384,2.89,8.122,6.703
		c-2.603,0.367-5.616,1.906-8.117,4.172c-2.51-2.266-5.523-3.805-8.126-4.172C24.751,8.875,28.11,5.984,32.135,5.984z M53,38.11
		c0,8.22-6.69,14.91-14.9,14.91H11.27V14.6h11.59c2.53,0,5.97,1.74,8.57,4.34c0.19,0.2,0.45,0.3,0.71,0.3c0.25,0,0.51-0.1,0.7-0.3
		c2.6-2.6,6.04-4.34,8.57-4.34H53V38.11z"/>
</g>
</svg>