<svg xmlns="http://www.w3.org/2000/svg" xmlns:xlink="http://www.w3.org/1999/xlink" width="54" zoomAndPan="magnify" viewBox="0 0 40.5 40.5" height="54" preserveAspectRatio="xMidYMid meet" version="1.0"><defs><clipPath id="4361820449"><path d="M 3.246094 3.203125 L 36.585938 3.203125 L 36.585938 36.542969 L 3.246094 36.542969 Z M 3.246094 3.203125 " clip-rule="nonzero"/></clipPath><clipPath id="e4564c84df"><path d="M 3.246094 3.203125 L 36.585938 3.203125 L 36.585938 36.542969 L 3.246094 36.542969 Z M 3.246094 3.203125 " clip-rule="nonzero"/></clipPath></defs><g clip-path="url(#4361820449)"><path fill="#1ba553" d="M 19.902344 3.234375 C 10.648438 3.265625 3.25 10.773438 3.371094 20.007812 C 3.394531 21.878906 3.726562 23.695312 4.367188 25.453125 C 5.011719 27.214844 5.925781 28.816406 7.117188 30.265625 C 7.308594 30.496094 7.417969 30.761719 7.441406 31.0625 C 7.46875 31.363281 7.410156 31.644531 7.261719 31.90625 L 5.832031 34.460938 C 5.4375 35.167969 6.082031 36.007812 6.871094 35.808594 L 11.710938 34.578125 C 12.058594 34.488281 12.394531 34.523438 12.71875 34.679688 C 14.882812 35.730469 17.171875 36.28125 19.578125 36.332031 C 28.882812 36.542969 36.523438 29.125 36.550781 19.839844 C 36.582031 10.65625 29.109375 3.203125 19.902344 3.234375 Z M 19.960938 34.296875 C 19.003906 34.296875 18.058594 34.203125 17.121094 34.019531 C 16.1875 33.832031 15.277344 33.558594 14.394531 33.191406 C 13.511719 32.828125 12.671875 32.382812 11.878906 31.851562 C 11.085938 31.324219 10.351562 30.722656 9.675781 30.046875 C 9 29.375 8.394531 28.640625 7.867188 27.847656 C 7.335938 27.054688 6.886719 26.21875 6.519531 25.339844 C 6.15625 24.460938 5.878906 23.550781 5.695312 22.617188 C 5.507812 21.683594 5.414062 20.738281 5.414062 19.785156 C 5.414062 11.769531 11.925781 5.273438 19.960938 5.273438 C 27.964844 5.273438 34.457031 11.722656 34.507812 19.691406 C 34.558594 27.691406 27.980469 34.296875 19.960938 34.296875 Z M 19.960938 34.296875 " fill-opacity="1" fill-rule="nonzero"/></g><path fill="#1ba553" d="M 17.359375 12.730469 L 17.367188 12.742188 L 18.234375 14.460938 C 18.429688 14.84375 18.488281 15.242188 18.410156 15.664062 C 18.335938 16.085938 18.140625 16.441406 17.828125 16.734375 C 17.515625 17.023438 17.320312 17.375 17.246094 17.792969 C 17.167969 18.210938 17.222656 18.609375 17.414062 18.992188 C 17.933594 20.035156 18.835938 21.472656 20.214844 22.511719 C 20.527344 22.75 20.886719 22.878906 21.28125 22.898438 C 21.675781 22.921875 22.042969 22.828125 22.382812 22.625 L 22.941406 22.285156 C 23.480469 21.957031 24.039062 21.90625 24.628906 22.128906 L 26.847656 22.972656 C 27.085938 23.0625 27.300781 23.195312 27.484375 23.371094 C 27.671875 23.546875 27.816406 23.75 27.921875 23.980469 C 28.027344 24.214844 28.082031 24.457031 28.089844 24.710938 C 28.097656 24.96875 28.054688 25.214844 27.964844 25.453125 C 27.9375 25.519531 27.910156 25.585938 27.875 25.648438 L 27.261719 26.839844 C 27.054688 27.238281 26.746094 27.53125 26.332031 27.714844 C 25.921875 27.898438 25.5 27.933594 25.0625 27.820312 C 21.574219 26.917969 13.261719 23.789062 12.59375 14.328125 C 12.566406 13.941406 12.644531 13.582031 12.835938 13.246094 C 13.023438 12.914062 13.289062 12.65625 13.632812 12.480469 L 14.765625 11.898438 C 14.992188 11.785156 15.234375 11.714844 15.488281 11.695312 C 15.742188 11.671875 15.992188 11.703125 16.234375 11.777344 C 16.480469 11.855469 16.699219 11.976562 16.894531 12.144531 C 17.089844 12.308594 17.242188 12.503906 17.359375 12.730469 Z M 17.359375 12.730469 " fill-opacity="1" fill-rule="nonzero"/><g clip-path="url(#e4564c84df)"><path fill="#1ba553" d="M 19.902344 3.234375 C 10.648438 3.265625 3.25 10.773438 3.371094 20.007812 C 3.394531 21.878906 3.726562 23.695312 4.367188 25.453125 C 5.011719 27.214844 5.925781 28.816406 7.117188 30.265625 C 7.308594 30.496094 7.417969 30.761719 7.441406 31.0625 C 7.46875 31.363281 7.410156 31.644531 7.261719 31.90625 L 5.832031 34.460938 C 5.4375 35.167969 6.082031 36.007812 6.871094 35.808594 L 11.710938 34.578125 C 12.058594 34.488281 12.394531 34.523438 12.71875 34.679688 C 14.882812 35.730469 17.171875 36.28125 19.578125 36.332031 C 28.882812 36.542969 36.523438 29.125 36.550781 19.839844 C 36.582031 10.65625 29.109375 3.203125 19.902344 3.234375 Z M 19.960938 34.296875 C 19.003906 34.296875 18.058594 34.203125 17.121094 34.019531 C 16.1875 33.832031 15.277344 33.558594 14.394531 33.191406 C 13.511719 32.828125 12.671875 32.382812 11.878906 31.851562 C 11.085938 31.324219 10.351562 30.722656 9.675781 30.046875 C 9 29.375 8.394531 28.640625 7.867188 27.847656 C 7.335938 27.054688 6.886719 26.21875 6.519531 25.339844 C 6.15625 24.460938 5.878906 23.550781 5.695312 22.617188 C 5.507812 21.683594 5.414062 20.738281 5.414062 19.785156 C 5.414062 11.769531 11.925781 5.273438 19.960938 5.273438 C 27.964844 5.273438 34.457031 11.722656 34.507812 19.691406 C 34.558594 27.691406 27.980469 34.296875 19.960938 34.296875 Z M 19.960938 34.296875 " fill-opacity="1" fill-rule="nonzero"/></g><path fill="#1ba553" d="M 17.359375 12.730469 L 17.367188 12.742188 L 18.234375 14.460938 C 18.429688 14.84375 18.488281 15.242188 18.410156 15.664062 C 18.335938 16.085938 18.140625 16.441406 17.828125 16.734375 C 17.515625 17.023438 17.320312 17.375 17.246094 17.792969 C 17.167969 18.210938 17.222656 18.609375 17.414062 18.992188 C 17.933594 20.035156 18.835938 21.472656 20.214844 22.511719 C 20.527344 22.75 20.886719 22.878906 21.28125 22.898438 C 21.675781 22.921875 22.042969 22.828125 22.382812 22.625 L 22.941406 22.285156 C 23.480469 21.957031 24.039062 21.90625 24.628906 22.128906 L 26.847656 22.972656 C 27.085938 23.0625 27.300781 23.195312 27.484375 23.371094 C 27.671875 23.546875 27.816406 23.75 27.921875 23.980469 C 28.027344 24.214844 28.082031 24.457031 28.089844 24.710938 C 28.097656 24.96875 28.054688 25.214844 27.964844 25.453125 C 27.9375 25.519531 27.910156 25.585938 27.875 25.648438 L 27.261719 26.839844 C 27.054688 27.238281 26.746094 27.53125 26.332031 27.714844 C 25.921875 27.898438 25.5 27.933594 25.0625 27.820312 C 21.574219 26.917969 13.261719 23.789062 12.59375 14.328125 C 12.566406 13.941406 12.644531 13.582031 12.835938 13.246094 C 13.023438 12.914062 13.289062 12.65625 13.632812 12.480469 L 14.765625 11.898438 C 14.992188 11.785156 15.234375 11.714844 15.488281 11.695312 C 15.742188 11.671875 15.992188 11.703125 16.234375 11.777344 C 16.480469 11.855469 16.699219 11.976562 16.894531 12.144531 C 17.089844 12.308594 17.242188 12.503906 17.359375 12.730469 Z M 17.359375 12.730469 " fill-opacity="1" fill-rule="nonzero"/></svg>